# xmcd CD database file
#
# Track frame offsets:
#	150
#	15940
#	37400
#	57730
#	76170
#	95914
#	114136
#	133119
#	156493
#	176009
#	195019
#	219749
#
# Disc length: 3116 seconds
#
# Revision: 0
# Processed by: cddbd v1.5.2PL0 Copyright (c) Steve Scherf et al.
# Submitted via: CDex 1.51
#
DISCID=a40c2a0c
DTITLE=Kenny Chesney - Just Who I Am: Poets and Pirates
DYEAR=2007
DGENRE=Country
TTITLE0=Never Wanted Nothing More
TTITLE1=Don't Blink
TTITLE2=Shiftwork (duet w George Strait)
TTITLE3=Just Not Today
TTITLE4=Wife And Kids
TTITLE5=Got A Little Crazy
TTITLE6=Better As A Memory
TTITLE7=Dancin' For The Groceries
TTITLE8=Wild Ride (feat Joe Walsh)
TTITLE9=Scare Me
TTITLE10=Demons
TTITLE11=It Ain't Cool To Be Crazy About You (bonus)
EXTD=YEAR: 2007
EXTT0=
EXTT1=
EXTT2=
EXTT3=
EXTT4=
EXTT5=
EXTT6=
EXTT7=
EXTT8=
EXTT9=
EXTT10=
EXTT11=
PLAYORDER=
